<svg viewBox="0 0 8795 7200" preserveAspectRatio="xMidYMid">
 
    <!-- generated: RTE SPA, Native/Hybrid App with status green -->
    <rect x="725" y="200" rx="20" ry="20" width="180" height="4600" 
        style="fill:rgb(0,176,80);fill-opacity:0.502;stroke:rgb(75,145,205);stroke-width:10;opacity:1.0" />
    <text x="755" y="3550" transform="rotate(-90 855,3550)" fill="rgb(75,145,175)" 
            font-family="Arial, sans-serif" font-size="150px" text-anchor="start">SPA, Native/Hybrid App</text>
    <text x="755" y="1320" transform="rotate(-90 855,1320)" fill="rgb(75,145,175)" 
                font-family="Arial, sans-serif" font-size="150px" text-anchor="end"></text>

    
        <a xlink:href="http://spa.com" target="newWindow">
            <rect x="725" y="200" rx="20" ry="20" width="180" height="4600" stroke-width="0" fill-opacity="0"/>
        </a>
    
 
    <!-- generated: RTE Digital Workplace with status green -->
    <rect x="930" y="200" rx="20" ry="20" width="180" height="4600" 
        style="fill:rgb(0,176,80);fill-opacity:0.502;stroke:rgb(75,145,205);stroke-width:10;opacity:1.0" />
    <text x="960" y="3550" transform="rotate(-90 1060,3550)" fill="rgb(75,145,175)" 
            font-family="Arial, sans-serif" font-size="150px" text-anchor="start">Digital Workplace</text>
    <text x="960" y="1320" transform="rotate(-90 1060,1320)" fill="rgb(75,145,175)" 
                font-family="Arial, sans-serif" font-size="150px" text-anchor="end"></text>

    
        <a xlink:href="http://dw.com" target="newWindow">
            <rect x="930" y="200" rx="20" ry="20" width="180" height="4600" stroke-width="0" fill-opacity="0"/>
        </a>
    
 
    <!-- generated: RTE RPA (Robotics) with status yellow -->
    <rect x="1135" y="200" rx="20" ry="20" width="180" height="4600" 
        style="fill:rgb(255,255,0);fill-opacity:0.502;stroke:rgb(75,145,205);stroke-width:10;opacity:1.0" />
    <text x="1165" y="3550" transform="rotate(-90 1265,3550)" fill="rgb(75,145,175)" 
            font-family="Arial, sans-serif" font-size="150px" text-anchor="start">RPA (Robotics)</text>
    <text x="1165" y="1320" transform="rotate(-90 1265,1320)" fill="rgb(75,145,175)" 
                font-family="Arial, sans-serif" font-size="150px" text-anchor="end"></text>

    

    <line x1="1390" y1="150" x2="1390" y2="4850" stroke-dasharray="25, 15" style="stroke:grey;stroke-width:10" />

    <!-- generated: DPE Cloud Box Client -->
    <rect x="725" y="5000" rx="50" ry="50" width="615" height="2000"
        style="fill:rgb(182,144,73);fill-opacity:0.8;stroke:rgb(134,106,54);stroke-width:20;opacity:1.0" />
    <text x="745" y="5200" fill="white" font-family="Arial, sans-serif" font-size="150px" >Client</text>
 
    <!-- generated: RTE Java (JEE@JET) with status yellow -->
    <rect x="1465" y="200" rx="20" ry="20" width="180" height="4600" 
        style="fill:rgb(255,255,0);fill-opacity:0.502;stroke:rgb(75,145,205);stroke-width:10;opacity:1.0" />
    <text x="1495" y="3550" transform="rotate(-90 1595,3550)" fill="rgb(75,145,175)" 
            font-family="Arial, sans-serif" font-size="150px" text-anchor="start">Java (JEE@JET)</text>
    <text x="1495" y="1320" transform="rotate(-90 1595,1320)" fill="rgb(75,145,175)" 
                font-family="Arial, sans-serif" font-size="150px" text-anchor="end">31.12.2019</text>

    
 
    <!-- generated: RTE .NET with status yellow -->
    <rect x="1670" y="200" rx="20" ry="20" width="180" height="4600" 
        style="fill:rgb(255,255,0);fill-opacity:0.502;stroke:rgb(75,145,205);stroke-width:10;opacity:1.0" />
    <text x="1700" y="3550" transform="rotate(-90 1800,3550)" fill="rgb(75,145,175)" 
            font-family="Arial, sans-serif" font-size="150px" text-anchor="start">.NET</text>
    <text x="1700" y="1320" transform="rotate(-90 1800,1320)" fill="rgb(75,145,175)" 
                font-family="Arial, sans-serif" font-size="150px" text-anchor="end">31.12.2019</text>

    
 
    <!-- generated: RTE SAP with status yellow -->
    <rect x="1875" y="200" rx="20" ry="20" width="180" height="4600" 
        style="fill:rgb(255,255,0);fill-opacity:0.502;stroke:rgb(75,145,205);stroke-width:10;opacity:1.0" />
    <text x="1905" y="3550" transform="rotate(-90 2005,3550)" fill="rgb(75,145,175)" 
            font-family="Arial, sans-serif" font-size="150px" text-anchor="start">SAP</text>
    <text x="1905" y="1320" transform="rotate(-90 2005,1320)" fill="rgb(75,145,175)" 
                font-family="Arial, sans-serif" font-size="150px" text-anchor="end">31.12.2018</text>

    
 
    <!-- generated: RTE Sharepoint with status yellow -->
    <rect x="2080" y="200" rx="20" ry="20" width="180" height="4600" 
        style="fill:rgb(255,255,0);fill-opacity:0.502;stroke:rgb(75,145,205);stroke-width:10;opacity:1.0" />
    <text x="2110" y="3550" transform="rotate(-90 2210,3550)" fill="rgb(75,145,175)" 
            font-family="Arial, sans-serif" font-size="150px" text-anchor="start">Sharepoint</text>
    <text x="2110" y="1320" transform="rotate(-90 2210,1320)" fill="rgb(75,145,175)" 
                font-family="Arial, sans-serif" font-size="150px" text-anchor="end">31.12.2020</text>

    
 
    <!-- generated: RTE iWARP BPM Platform (Appway) with status green -->
    <rect x="2285" y="200" rx="20" ry="20" width="180" height="4600" 
        style="fill:rgb(0,176,80);fill-opacity:0.502;stroke:rgb(75,145,205);stroke-width:10;opacity:1.0" />
    <text x="2315" y="3550" transform="rotate(-90 2415,3550)" fill="rgb(75,145,175)" 
            font-family="Arial, sans-serif" font-size="150px" text-anchor="start">iWARP BPM Platform (Appway)</text>
    <text x="2315" y="1320" transform="rotate(-90 2415,1320)" fill="rgb(75,145,175)" 
                font-family="Arial, sans-serif" font-size="150px" text-anchor="end"></text>

    

    <line x1="2515" y1="150" x2="2515" y2="4850" stroke-dasharray="25, 15" style="stroke:grey;stroke-width:10" />
 
    <!-- generated: RTE IMS with status yellow -->
    <rect x="2565" y="200" rx="20" ry="20" width="180" height="4600" 
        style="fill:rgb(255,255,0);fill-opacity:0.502;stroke:rgb(75,145,205);stroke-width:10;opacity:1.0" />
    <text x="2595" y="3550" transform="rotate(-90 2695,3550)" fill="rgb(75,145,175)" 
            font-family="Arial, sans-serif" font-size="150px" text-anchor="start">IMS</text>
    <text x="2595" y="1320" transform="rotate(-90 2695,1320)" fill="rgb(75,145,175)" 
                font-family="Arial, sans-serif" font-size="150px" text-anchor="end"></text>

    
 
    <!-- generated: RTE CICS with status yellow -->
    <rect x="2770" y="200" rx="20" ry="20" width="180" height="4600" 
        style="fill:rgb(255,255,0);fill-opacity:0.502;stroke:rgb(75,145,205);stroke-width:10;opacity:1.0" />
    <text x="2800" y="3550" transform="rotate(-90 2900,3550)" fill="rgb(75,145,175)" 
            font-family="Arial, sans-serif" font-size="150px" text-anchor="start">CICS</text>
    <text x="2800" y="1320" transform="rotate(-90 2900,1320)" fill="rgb(75,145,175)" 
                font-family="Arial, sans-serif" font-size="150px" text-anchor="end"></text>

    

    <line x1="3000" y1="150" x2="3000" y2="4850" stroke-dasharray="25, 15" style="stroke:grey;stroke-width:10" />
 
    <!-- generated: RTE IBM i (COBOL) with status red -->
    <rect x="3050" y="200" rx="20" ry="20" width="180" height="4600" 
        style="fill:rgb(255,163,166);fill-opacity:0.502;stroke:rgb(75,145,205);stroke-width:10;opacity:1.0" />
    <text x="3080" y="3550" transform="rotate(-90 3180,3550)" fill="rgb(75,145,175)" 
            font-family="Arial, sans-serif" font-size="150px" text-anchor="start">IBM i (COBOL)</text>
    <text x="3080" y="1320" transform="rotate(-90 3180,1320)" fill="rgb(75,145,175)" 
                font-family="Arial, sans-serif" font-size="150px" text-anchor="end"></text>

    

    <line x1="3510" y1="150" x2="3510" y2="4850" stroke-dasharray="25, 15" style="stroke:grey;stroke-width:10" />

    <!-- generated: DPE Cloud Box Core IT -->
    <rect x="1465" y="5000" rx="50" ry="50" width="1995" height="2000"
        style="fill:rgb(182,144,73);fill-opacity:0.8;stroke:rgb(134,106,54);stroke-width:20;opacity:1.0" />
    <text x="1485" y="5200" fill="white" font-family="Arial, sans-serif" font-size="150px" >Core IT</text>
 
    <!-- generated: RTE .NET with status green -->
    <rect x="3585" y="200" rx="20" ry="20" width="180" height="4600" 
        style="fill:rgb(0,176,80);fill-opacity:0.502;stroke:rgb(75,145,205);stroke-width:10;opacity:1.0" />
    <text x="3615" y="3550" transform="rotate(-90 3715,3550)" fill="rgb(75,145,175)" 
            font-family="Arial, sans-serif" font-size="150px" text-anchor="start">.NET</text>
    <text x="3615" y="1320" transform="rotate(-90 3715,1320)" fill="rgb(75,145,175)" 
                font-family="Arial, sans-serif" font-size="150px" text-anchor="end"></text>

    

    <line x1="4020" y1="150" x2="4020" y2="4850" stroke-dasharray="25, 15" style="stroke:grey;stroke-width:10" />
 
    <!-- generated: RTE SAP Business Module with status green -->
    <rect x="4070" y="200" rx="20" ry="20" width="180" height="4600" 
        style="fill:rgb(0,176,80);fill-opacity:0.502;stroke:rgb(75,145,205);stroke-width:10;opacity:1.0" />
    <text x="4100" y="3550" transform="rotate(-90 4200,3550)" fill="rgb(75,145,175)" 
            font-family="Arial, sans-serif" font-size="150px" text-anchor="start">SAP Business Module</text>
    <text x="4100" y="1320" transform="rotate(-90 4200,1320)" fill="rgb(75,145,175)" 
                font-family="Arial, sans-serif" font-size="150px" text-anchor="end"></text>

    
 
    <!-- generated: RTE SAP BI/BW with status green -->
    <rect x="4275" y="200" rx="20" ry="20" width="180" height="4600" 
        style="fill:rgb(0,176,80);fill-opacity:0.502;stroke:rgb(75,145,205);stroke-width:10;opacity:1.0" />
    <text x="4305" y="3550" transform="rotate(-90 4405,3550)" fill="rgb(75,145,175)" 
            font-family="Arial, sans-serif" font-size="150px" text-anchor="start">SAP BI/BW</text>
    <text x="4305" y="1320" transform="rotate(-90 4405,1320)" fill="rgb(75,145,175)" 
                font-family="Arial, sans-serif" font-size="150px" text-anchor="end"></text>

    

    <line x1="4505" y1="150" x2="4505" y2="4850" stroke-dasharray="25, 15" style="stroke:grey;stroke-width:10" />
 
    <!-- generated: RTE DataLake with status blue -->
    <rect x="4555" y="200" rx="20" ry="20" width="180" height="4600" 
        style="fill:rgb(152,224,255);fill-opacity:0.502;stroke:rgb(75,145,205);stroke-width:10;opacity:1.0" />
    <text x="4585" y="3550" transform="rotate(-90 4685,3550)" fill="rgb(75,145,175)" 
            font-family="Arial, sans-serif" font-size="150px" text-anchor="start">DataLake</text>
    <text x="4585" y="1320" transform="rotate(-90 4685,1320)" fill="rgb(75,145,175)" 
                font-family="Arial, sans-serif" font-size="150px" text-anchor="end"></text>

    

    <line x1="4990" y1="150" x2="4990" y2="4850" stroke-dasharray="25, 15" style="stroke:grey;stroke-width:10" />
 
    <!-- generated: RTE Java (JBoss EAP, Spring) with status blue -->
    <rect x="5040" y="200" rx="20" ry="20" width="180" height="4600" 
        style="fill:rgb(152,224,255);fill-opacity:0.502;stroke:rgb(75,145,205);stroke-width:10;opacity:1.0" />
    <text x="5070" y="3550" transform="rotate(-90 5170,3550)" fill="rgb(75,145,175)" 
            font-family="Arial, sans-serif" font-size="150px" text-anchor="start">Java (JBoss EAP, Spring)</text>
    <text x="5070" y="1320" transform="rotate(-90 5170,1320)" fill="rgb(75,145,175)" 
                font-family="Arial, sans-serif" font-size="150px" text-anchor="end"></text>

    
 
    <!-- generated: RTE NodeJS with status blue -->
    <rect x="5245" y="200" rx="20" ry="20" width="180" height="4600" 
        style="fill:rgb(152,224,255);fill-opacity:0.502;stroke:rgb(75,145,205);stroke-width:10;opacity:1.0" />
    <text x="5275" y="3550" transform="rotate(-90 5375,3550)" fill="rgb(75,145,175)" 
            font-family="Arial, sans-serif" font-size="150px" text-anchor="start">NodeJS</text>
    <text x="5275" y="1320" transform="rotate(-90 5375,1320)" fill="rgb(75,145,175)" 
                font-family="Arial, sans-serif" font-size="150px" text-anchor="end"></text>

    
 
    <!-- generated: RTE Docker with status blue -->
    <rect x="5450" y="200" rx="20" ry="20" width="180" height="4600" 
        style="fill:rgb(152,224,255);fill-opacity:0.502;stroke:rgb(75,145,205);stroke-width:10;opacity:1.0" />
    <text x="5480" y="3550" transform="rotate(-90 5580,3550)" fill="rgb(75,145,175)" 
            font-family="Arial, sans-serif" font-size="150px" text-anchor="start">Docker</text>
    <text x="5480" y="1320" transform="rotate(-90 5580,1320)" fill="rgb(75,145,175)" 
                font-family="Arial, sans-serif" font-size="150px" text-anchor="end"></text>

    
 
    <!-- generated: RTE iWARP BPM Platform (Appway) with status blue -->
    <rect x="5655" y="200" rx="20" ry="20" width="180" height="4600" 
        style="fill:rgb(152,224,255);fill-opacity:0.502;stroke:rgb(75,145,205);stroke-width:10;opacity:1.0" />
    <text x="5685" y="3550" transform="rotate(-90 5785,3550)" fill="rgb(75,145,175)" 
            font-family="Arial, sans-serif" font-size="150px" text-anchor="start">iWARP BPM Platform (Appway)</text>
    <text x="5685" y="1320" transform="rotate(-90 5785,1320)" fill="rgb(75,145,175)" 
                font-family="Arial, sans-serif" font-size="150px" text-anchor="end"></text>

    

    <line x1="5910" y1="150" x2="5910" y2="4850" stroke-dasharray="25, 15" style="stroke:grey;stroke-width:10" />

    <!-- generated: DPE Cloud Box Private Cloud -->
    <rect x="3585" y="5000" rx="50" ry="50" width="2275" height="2000"
        style="fill:rgb(182,144,73);fill-opacity:0.6;stroke:rgb(134,106,54);stroke-width:20;opacity:1.0" />
    <text x="3605" y="5200" fill="white" font-family="Arial, sans-serif" font-size="150px" >Private Cloud</text>
 
    <!-- generated: RTE Java (JBoss EAP, Spring) with status green -->
    <rect x="5985" y="200" rx="20" ry="20" width="180" height="4600" 
        style="fill:rgb(0,176,80);fill-opacity:0.502;stroke:rgb(75,145,205);stroke-width:10;opacity:1.0" />
    <text x="6015" y="3550" transform="rotate(-90 6115,3550)" fill="rgb(75,145,175)" 
            font-family="Arial, sans-serif" font-size="150px" text-anchor="start">Java (JBoss EAP, Spring)</text>
    <text x="6015" y="1320" transform="rotate(-90 6115,1320)" fill="rgb(75,145,175)" 
                font-family="Arial, sans-serif" font-size="150px" text-anchor="end"></text>

    
 
    <!-- generated: RTE NodeJS with status blue -->
    <rect x="6190" y="200" rx="20" ry="20" width="180" height="4600" 
        style="fill:rgb(152,224,255);fill-opacity:0.502;stroke:rgb(75,145,205);stroke-width:10;opacity:1.0" />
    <text x="6220" y="3550" transform="rotate(-90 6320,3550)" fill="rgb(75,145,175)" 
            font-family="Arial, sans-serif" font-size="150px" text-anchor="start">NodeJS</text>
    <text x="6220" y="1320" transform="rotate(-90 6320,1320)" fill="rgb(75,145,175)" 
                font-family="Arial, sans-serif" font-size="150px" text-anchor="end"></text>

    
 
    <!-- generated: RTE Docker with status blue -->
    <rect x="6395" y="200" rx="20" ry="20" width="180" height="4600" 
        style="fill:rgb(152,224,255);fill-opacity:0.502;stroke:rgb(75,145,205);stroke-width:10;opacity:1.0" />
    <text x="6425" y="3550" transform="rotate(-90 6525,3550)" fill="rgb(75,145,175)" 
            font-family="Arial, sans-serif" font-size="150px" text-anchor="start">Docker</text>
    <text x="6425" y="1320" transform="rotate(-90 6525,1320)" fill="rgb(75,145,175)" 
                font-family="Arial, sans-serif" font-size="150px" text-anchor="end"></text>

    
 
    <!-- generated: RTE SaaS (AWS SaaS Services) with status green -->
    <rect x="6600" y="200" rx="20" ry="20" width="180" height="4600" 
        style="fill:rgb(0,176,80);fill-opacity:0.502;stroke:rgb(75,145,205);stroke-width:10;opacity:1.0" />
    <text x="6630" y="3550" transform="rotate(-90 6730,3550)" fill="rgb(75,145,175)" 
            font-family="Arial, sans-serif" font-size="150px" text-anchor="start">SaaS (AWS SaaS Services)</text>
    <text x="6630" y="1320" transform="rotate(-90 6730,1320)" fill="rgb(75,145,175)" 
                font-family="Arial, sans-serif" font-size="150px" text-anchor="end"></text>

    

    <line x1="6830" y1="150" x2="6830" y2="4850" stroke-dasharray="25, 15" style="stroke:grey;stroke-width:10" />
 
    <!-- generated: RTE .NET with status green -->
    <rect x="6880" y="200" rx="20" ry="20" width="180" height="4600" 
        style="fill:rgb(0,176,80);fill-opacity:0.502;stroke:rgb(75,145,205);stroke-width:10;opacity:1.0" />
    <text x="6910" y="3550" transform="rotate(-90 7010,3550)" fill="rgb(75,145,175)" 
            font-family="Arial, sans-serif" font-size="150px" text-anchor="start">.NET</text>
    <text x="6910" y="1320" transform="rotate(-90 7010,1320)" fill="rgb(75,145,175)" 
                font-family="Arial, sans-serif" font-size="150px" text-anchor="end"></text>

    
 
    <!-- generated: RTE NodeJS with status red -->
    <rect x="7085" y="200" rx="20" ry="20" width="180" height="4600" 
        style="fill:rgb(255,163,166);fill-opacity:0.502;stroke:rgb(75,145,205);stroke-width:10;opacity:1.0" />
    <text x="7115" y="3550" transform="rotate(-90 7215,3550)" fill="rgb(75,145,175)" 
            font-family="Arial, sans-serif" font-size="150px" text-anchor="start">NodeJS</text>
    <text x="7115" y="1320" transform="rotate(-90 7215,1320)" fill="rgb(75,145,175)" 
                font-family="Arial, sans-serif" font-size="150px" text-anchor="end"></text>

    
 
    <!-- generated: RTE SaaS (Azure SaaS Services) with status green -->
    <rect x="7290" y="200" rx="20" ry="20" width="180" height="4600" 
        style="fill:rgb(0,176,80);fill-opacity:0.502;stroke:rgb(75,145,205);stroke-width:10;opacity:1.0" />
    <text x="7320" y="3550" transform="rotate(-90 7420,3550)" fill="rgb(75,145,175)" 
            font-family="Arial, sans-serif" font-size="150px" text-anchor="start">SaaS (Azure SaaS Services)</text>
    <text x="7320" y="1320" transform="rotate(-90 7420,1320)" fill="rgb(75,145,175)" 
                font-family="Arial, sans-serif" font-size="150px" text-anchor="end"></text>

    

    <line x1="7750" y1="150" x2="7750" y2="4850" stroke-dasharray="25, 15" style="stroke:grey;stroke-width:10" />

    <!-- generated: DPE Cloud Box Managed Public Cloud -->
    <rect x="5985" y="5000" rx="50" ry="50" width="1715" height="2000"
        style="fill:rgb(182,144,73);fill-opacity:0.4;stroke:rgb(134,106,54);stroke-width:20;opacity:1.0" />
    <text x="6005" y="5200" fill="white" font-family="Arial, sans-serif" font-size="150px" >Managed Public Cloud</text>
 
    <!-- generated: RTE SaaS with status green -->
    <rect x="7825" y="200" rx="20" ry="20" width="180" height="4600" 
        style="fill:rgb(0,176,80);fill-opacity:0.502;stroke:rgb(75,145,205);stroke-width:10;opacity:1.0" />
    <text x="7855" y="3550" transform="rotate(-90 7955,3550)" fill="rgb(75,145,175)" 
            font-family="Arial, sans-serif" font-size="150px" text-anchor="start">SaaS</text>
    <text x="7855" y="1320" transform="rotate(-90 7955,1320)" fill="rgb(75,145,175)" 
                font-family="Arial, sans-serif" font-size="150px" text-anchor="end"></text>

    
 
    <!-- generated: RTE Office365 with status green -->
    <rect x="8030" y="200" rx="20" ry="20" width="180" height="4600" 
        style="fill:rgb(0,176,80);fill-opacity:0.502;stroke:rgb(75,145,205);stroke-width:10;opacity:1.0" />
    <text x="8060" y="3550" transform="rotate(-90 8160,3550)" fill="rgb(75,145,175)" 
            font-family="Arial, sans-serif" font-size="150px" text-anchor="start">Office365</text>
    <text x="8060" y="1320" transform="rotate(-90 8160,1320)" fill="rgb(75,145,175)" 
                font-family="Arial, sans-serif" font-size="150px" text-anchor="end"></text>

    

    <line x1="8260" y1="150" x2="8260" y2="4850" stroke-dasharray="25, 15" style="stroke:grey;stroke-width:10" />
 
    <!-- generated: RTE SaaS with status green -->
    <rect x="8310" y="200" rx="20" ry="20" width="180" height="4600" 
        style="fill:rgb(0,176,80);fill-opacity:0.502;stroke:rgb(75,145,205);stroke-width:10;opacity:1.0" />
    <text x="8340" y="3550" transform="rotate(-90 8440,3550)" fill="rgb(75,145,175)" 
            font-family="Arial, sans-serif" font-size="150px" text-anchor="start">SaaS</text>
    <text x="8340" y="1320" transform="rotate(-90 8440,1320)" fill="rgb(75,145,175)" 
                font-family="Arial, sans-serif" font-size="150px" text-anchor="end"></text>

    

    <!-- generated: DPE Cloud Box Public Cloud -->
    <rect x="7825" y="5000" rx="50" ry="50" width="895" height="2000"
        style="fill:rgb(182,144,73);fill-opacity:0.2;stroke:rgb(134,106,54);stroke-width:20;opacity:1.0" />
    <text x="7845" y="5200" fill="white" font-family="Arial, sans-serif" font-size="150px" >Public Cloud</text>
    
    <!-- DPE Instanz -->
    <!-- rect center w:750 h:1400  rgb(182,144,73)  rgb(226,211,182)-->
    
        <a xlink:href="http://client.com">
    
   
    <path fill="rgb(235,220,190)" fill-opacity="1.0" stroke="rgb(134,106,54)" stroke-width="10" stroke-linejoin="round" d="M 775,5400 L 1240,5400 1240,6900 775,6900 775,5400 Z"/>
    <!-- rect rechts w:100 h:100  rgb(152,120,61)-->
    <path fill="rgb(200,170,100)" fill-opacity="1.0" stroke="rgb(134,106,54)" stroke-width="10" stroke-linejoin="round" d="M 1240,5400 L 1290,5300 1290,6850 1240,6900 1240,5400 Z"/>
    <!-- rect oben w:100 h:100 rgb(243,192,97)-->  
    <path fill="rgb(226,211,182)" fill-opacity="1.0" stroke="rgb(134,106,54)"  stroke-width="10" stroke-linejoin="round" d="M 775,5400 L 845,5300 1290,5300 1240,5400 775,5400 Z"/>

    <text x="825" y="6700" transform="rotate(-90 925,6700)" fill="rgb(134,106,54)" font-family="Arial, sans-serif" 
        font-size="150px">Client Device</text>
    <text x="945" y="6700" transform="rotate(-90 1045,6700)" fill="rgb(134,106,54)" font-family="Arial, sans-serif" 
        font-size="100px"></text>

    
        </a>
    
    
    <!-- DPE Instanz -->
    <!-- rect center w:750 h:1400  rgb(182,144,73)  rgb(226,211,182)-->
    
   
    <path fill="rgb(235,220,190)" fill-opacity="1.0" stroke="rgb(134,106,54)" stroke-width="10" stroke-linejoin="round" d="M 1515,5400 L 2440,5400 2440,6900 1515,6900 1515,5400 Z"/>
    <!-- rect rechts w:100 h:100  rgb(152,120,61)-->
    <path fill="rgb(200,170,100)" fill-opacity="1.0" stroke="rgb(134,106,54)" stroke-width="10" stroke-linejoin="round" d="M 2440,5400 L 2490,5300 2490,6850 2440,6900 2440,5400 Z"/>
    <!-- rect oben w:100 h:100 rgb(243,192,97)-->  
    <path fill="rgb(226,211,182)" fill-opacity="1.0" stroke="rgb(134,106,54)"  stroke-width="10" stroke-linejoin="round" d="M 1515,5400 L 1585,5300 2490,5300 2440,5400 1515,5400 Z"/>

    <text x="1565" y="6700" transform="rotate(-90 1665,6700)" fill="rgb(134,106,54)" font-family="Arial, sans-serif" 
        font-size="150px">VMWare ESX</text>
    <text x="1685" y="6700" transform="rotate(-90 1785,6700)" fill="rgb(134,106,54)" font-family="Arial, sans-serif" 
        font-size="100px">(Windows, RHEL)</text>

    
    
    <!-- DPE Instanz -->
    <!-- rect center w:750 h:1400  rgb(182,144,73)  rgb(226,211,182)-->
    
   
    <path fill="rgb(235,220,190)" fill-opacity="1.0" stroke="rgb(134,106,54)" stroke-width="10" stroke-linejoin="round" d="M 2565,5400 L 2925,5400 2925,6900 2565,6900 2565,5400 Z"/>
    <!-- rect rechts w:100 h:100  rgb(152,120,61)-->
    <path fill="rgb(200,170,100)" fill-opacity="1.0" stroke="rgb(134,106,54)" stroke-width="10" stroke-linejoin="round" d="M 2925,5400 L 2975,5300 2975,6850 2925,6900 2925,5400 Z"/>
    <!-- rect oben w:100 h:100 rgb(243,192,97)-->  
    <path fill="rgb(226,211,182)" fill-opacity="1.0" stroke="rgb(134,106,54)"  stroke-width="10" stroke-linejoin="round" d="M 2565,5400 L 2635,5300 2975,5300 2925,5400 2565,5400 Z"/>

    <text x="2615" y="6700" transform="rotate(-90 2715,6700)" fill="rgb(134,106,54)" font-family="Arial, sans-serif" 
        font-size="150px">Mainframe</text>
    <text x="2735" y="6700" transform="rotate(-90 2835,6700)" fill="rgb(134,106,54)" font-family="Arial, sans-serif" 
        font-size="100px">(zseries, z/OS)</text>

    
    
    <!-- DPE Instanz -->
    <!-- rect center w:750 h:1400  rgb(182,144,73)  rgb(226,211,182)-->
    
   
    <path fill="rgb(235,220,190)" fill-opacity="1.0" stroke="rgb(134,106,54)" stroke-width="10" stroke-linejoin="round" d="M 3050,5400 L 3360,5400 3360,6900 3050,6900 3050,5400 Z"/>
    <!-- rect rechts w:100 h:100  rgb(152,120,61)-->
    <path fill="rgb(200,170,100)" fill-opacity="1.0" stroke="rgb(134,106,54)" stroke-width="10" stroke-linejoin="round" d="M 3360,5400 L 3410,5300 3410,6850 3360,6900 3360,5400 Z"/>
    <!-- rect oben w:100 h:100 rgb(243,192,97)-->  
    <path fill="rgb(226,211,182)" fill-opacity="1.0" stroke="rgb(134,106,54)"  stroke-width="10" stroke-linejoin="round" d="M 3050,5400 L 3120,5300 3410,5300 3360,5400 3050,5400 Z"/>

    <text x="3100" y="6700" transform="rotate(-90 3200,6700)" fill="rgb(134,106,54)" font-family="Arial, sans-serif" 
        font-size="150px">IBM iSeries</text>
    <text x="3220" y="6700" transform="rotate(-90 3320,6700)" fill="rgb(134,106,54)" font-family="Arial, sans-serif" 
        font-size="100px"></text>

    
    
    <!-- DPE Instanz -->
    <!-- rect center w:750 h:1400  rgb(182,144,73)  rgb(226,211,182)-->
    
   
    <path fill="rgb(235,220,190)" fill-opacity="1.0" stroke="rgb(134,106,54)" stroke-width="10" stroke-linejoin="round" d="M 3635,5400 L 3945,5400 3945,6900 3635,6900 3635,5400 Z"/>
    <!-- rect rechts w:100 h:100  rgb(152,120,61)-->
    <path fill="rgb(200,170,100)" fill-opacity="1.0" stroke="rgb(134,106,54)" stroke-width="10" stroke-linejoin="round" d="M 3945,5400 L 3995,5300 3995,6850 3945,6900 3945,5400 Z"/>
    <!-- rect oben w:100 h:100 rgb(243,192,97)-->  
    <path fill="rgb(226,211,182)" fill-opacity="1.0" stroke="rgb(134,106,54)"  stroke-width="10" stroke-linejoin="round" d="M 3635,5400 L 3705,5300 3995,5300 3945,5400 3635,5400 Z"/>

    <text x="3685" y="6700" transform="rotate(-90 3785,6700)" fill="rgb(134,106,54)" font-family="Arial, sans-serif" 
        font-size="150px">IaaS - BLS</text>
    <text x="3805" y="6700" transform="rotate(-90 3905,6700)" fill="rgb(134,106,54)" font-family="Arial, sans-serif" 
        font-size="100px">(Windows, RHEL)</text>

    
    
    <!-- DPE Instanz -->
    <!-- rect center w:750 h:1400  rgb(182,144,73)  rgb(226,211,182)-->
    
   
    <path fill="rgb(235,220,190)" fill-opacity="1.0" stroke="rgb(134,106,54)" stroke-width="10" stroke-linejoin="round" d="M 4070,5400 L 4430,5400 4430,6900 4070,6900 4070,5400 Z"/>
    <!-- rect rechts w:100 h:100  rgb(152,120,61)-->
    <path fill="rgb(200,170,100)" fill-opacity="1.0" stroke="rgb(134,106,54)" stroke-width="10" stroke-linejoin="round" d="M 4430,5400 L 4480,5300 4480,6850 4430,6900 4430,5400 Z"/>
    <!-- rect oben w:100 h:100 rgb(243,192,97)-->  
    <path fill="rgb(226,211,182)" fill-opacity="1.0" stroke="rgb(134,106,54)"  stroke-width="10" stroke-linejoin="round" d="M 4070,5400 L 4140,5300 4480,5300 4430,5400 4070,5400 Z"/>

    <text x="4120" y="6700" transform="rotate(-90 4220,6700)" fill="rgb(134,106,54)" font-family="Arial, sans-serif" 
        font-size="150px">SAP BB4B</text>
    <text x="4240" y="6700" transform="rotate(-90 4340,6700)" fill="rgb(134,106,54)" font-family="Arial, sans-serif" 
        font-size="100px"> </text>

    
    
    <!-- DPE Instanz -->
    <!-- rect center w:750 h:1400  rgb(182,144,73)  rgb(226,211,182)-->
    
   
    <path fill="rgb(235,220,190)" fill-opacity="1.0" stroke="rgb(134,106,54)" stroke-width="10" stroke-linejoin="round" d="M 4555,5400 L 4915,5400 4915,6900 4555,6900 4555,5400 Z"/>
    <!-- rect rechts w:100 h:100  rgb(152,120,61)-->
    <path fill="rgb(200,170,100)" fill-opacity="1.0" stroke="rgb(134,106,54)" stroke-width="10" stroke-linejoin="round" d="M 4915,5400 L 4965,5300 4965,6850 4915,6900 4915,5400 Z"/>
    <!-- rect oben w:100 h:100 rgb(243,192,97)-->  
    <path fill="rgb(226,211,182)" fill-opacity="1.0" stroke="rgb(134,106,54)"  stroke-width="10" stroke-linejoin="round" d="M 4555,5400 L 4625,5300 4965,5300 4915,5400 4555,5400 Z"/>

    <text x="4605" y="6700" transform="rotate(-90 4705,6700)" fill="rgb(134,106,54)" font-family="Arial, sans-serif" 
        font-size="150px">DataLake - DIL</text>
    <text x="4725" y="6700" transform="rotate(-90 4825,6700)" fill="rgb(134,106,54)" font-family="Arial, sans-serif" 
        font-size="100px"> </text>

    
    
    <!-- DPE Instanz -->
    <!-- rect center w:750 h:1400  rgb(182,144,73)  rgb(226,211,182)-->
    
   
    <path fill="rgb(235,220,190)" fill-opacity="1.0" stroke="rgb(134,106,54)" stroke-width="10" stroke-linejoin="round" d="M 5040,5400 L 5760,5400 5760,6900 5040,6900 5040,5400 Z"/>
    <!-- rect rechts w:100 h:100  rgb(152,120,61)-->
    <path fill="rgb(200,170,100)" fill-opacity="1.0" stroke="rgb(134,106,54)" stroke-width="10" stroke-linejoin="round" d="M 5760,5400 L 5810,5300 5810,6850 5760,6900 5760,5400 Z"/>
    <!-- rect oben w:100 h:100 rgb(243,192,97)-->  
    <path fill="rgb(226,211,182)" fill-opacity="1.0" stroke="rgb(134,106,54)"  stroke-width="10" stroke-linejoin="round" d="M 5040,5400 L 5110,5300 5810,5300 5760,5400 5040,5400 Z"/>

    <text x="5090" y="6700" transform="rotate(-90 5190,6700)" fill="rgb(134,106,54)" font-family="Arial, sans-serif" 
        font-size="150px">OpenPaaS/private</text>
    <text x="5210" y="6700" transform="rotate(-90 5310,6700)" fill="rgb(134,106,54)" font-family="Arial, sans-serif" 
        font-size="100px">(OpenShift on BLS)</text>

    
    
    <!-- DPE Instanz -->
    <!-- rect center w:750 h:1400  rgb(182,144,73)  rgb(226,211,182)-->
    
   
    <path fill="rgb(235,220,190)" fill-opacity="1.0" stroke="rgb(134,106,54)" stroke-width="10" stroke-linejoin="round" d="M 6035,5400 L 6755,5400 6755,6900 6035,6900 6035,5400 Z"/>
    <!-- rect rechts w:100 h:100  rgb(152,120,61)-->
    <path fill="rgb(200,170,100)" fill-opacity="1.0" stroke="rgb(134,106,54)" stroke-width="10" stroke-linejoin="round" d="M 6755,5400 L 6805,5300 6805,6850 6755,6900 6755,5400 Z"/>
    <!-- rect oben w:100 h:100 rgb(243,192,97)-->  
    <path fill="rgb(226,211,182)" fill-opacity="1.0" stroke="rgb(134,106,54)"  stroke-width="10" stroke-linejoin="round" d="M 6035,5400 L 6105,5300 6805,5300 6755,5400 6035,5400 Z"/>

    <text x="6085" y="6700" transform="rotate(-90 6185,6700)" fill="rgb(134,106,54)" font-family="Arial, sans-serif" 
        font-size="150px">OpenPaaS/public</text>
    <text x="6205" y="6700" transform="rotate(-90 6305,6700)" fill="rgb(134,106,54)" font-family="Arial, sans-serif" 
        font-size="100px">(OpenShift on AWS)</text>

    
    
    <!-- DPE Instanz -->
    <!-- rect center w:750 h:1400  rgb(182,144,73)  rgb(226,211,182)-->
    
   
    <path fill="rgb(235,220,190)" fill-opacity="1.0" stroke="rgb(134,106,54)" stroke-width="10" stroke-linejoin="round" d="M 6880,5400 L 7600,5400 7600,6900 6880,6900 6880,5400 Z"/>
    <!-- rect rechts w:100 h:100  rgb(152,120,61)-->
    <path fill="rgb(200,170,100)" fill-opacity="1.0" stroke="rgb(134,106,54)" stroke-width="10" stroke-linejoin="round" d="M 7600,5400 L 7650,5300 7650,6850 7600,6900 7600,5400 Z"/>
    <!-- rect oben w:100 h:100 rgb(243,192,97)-->  
    <path fill="rgb(226,211,182)" fill-opacity="1.0" stroke="rgb(134,106,54)"  stroke-width="10" stroke-linejoin="round" d="M 6880,5400 L 6950,5300 7650,5300 7600,5400 6880,5400 Z"/>

    <text x="6930" y="6700" transform="rotate(-90 7030,6700)" fill="rgb(134,106,54)" font-family="Arial, sans-serif" 
        font-size="150px">AzurePaaS</text>
    <text x="7050" y="6700" transform="rotate(-90 7150,6700)" fill="rgb(134,106,54)" font-family="Arial, sans-serif" 
        font-size="100px">Azure</text>

    
    
    <!-- DPE Instanz -->
    <!-- rect center w:750 h:1400  rgb(182,144,73)  rgb(226,211,182)-->
    
   
    <path fill="rgb(235,220,190)" fill-opacity="1.0" stroke="rgb(134,106,54)" stroke-width="10" stroke-linejoin="round" d="M 7875,5400 L 8185,5400 8185,6900 7875,6900 7875,5400 Z"/>
    <!-- rect rechts w:100 h:100  rgb(152,120,61)-->
    <path fill="rgb(200,170,100)" fill-opacity="1.0" stroke="rgb(134,106,54)" stroke-width="10" stroke-linejoin="round" d="M 8185,5400 L 8235,5300 8235,6850 8185,6900 8185,5400 Z"/>
    <!-- rect oben w:100 h:100 rgb(243,192,97)-->  
    <path fill="rgb(226,211,182)" fill-opacity="1.0" stroke="rgb(134,106,54)"  stroke-width="10" stroke-linejoin="round" d="M 7875,5400 L 7945,5300 8235,5300 8185,5400 7875,5400 Z"/>

    <text x="7925" y="6700" transform="rotate(-90 8025,6700)" fill="rgb(134,106,54)" font-family="Arial, sans-serif" 
        font-size="150px">Partially Known</text>
    <text x="8045" y="6700" transform="rotate(-90 8145,6700)" fill="rgb(134,106,54)" font-family="Arial, sans-serif" 
        font-size="100px"> </text>

    
    
    <!-- DPE Instanz -->
    <!-- rect center w:750 h:1400  rgb(182,144,73)  rgb(226,211,182)-->
    
   
    <path fill="rgb(235,220,190)" fill-opacity="1.0" stroke="rgb(134,106,54)" stroke-width="10" stroke-linejoin="round" d="M 8310,5400 L 8620,5400 8620,6900 8310,6900 8310,5400 Z"/>
    <!-- rect rechts w:100 h:100  rgb(152,120,61)-->
    <path fill="rgb(200,170,100)" fill-opacity="1.0" stroke="rgb(134,106,54)" stroke-width="10" stroke-linejoin="round" d="M 8620,5400 L 8670,5300 8670,6850 8620,6900 8620,5400 Z"/>
    <!-- rect oben w:100 h:100 rgb(243,192,97)-->  
    <path fill="rgb(226,211,182)" fill-opacity="1.0" stroke="rgb(134,106,54)"  stroke-width="10" stroke-linejoin="round" d="M 8310,5400 L 8380,5300 8670,5300 8620,5400 8310,5400 Z"/>

    <text x="8360" y="6700" transform="rotate(-90 8460,6700)" fill="rgb(134,106,54)" font-family="Arial, sans-serif" 
        font-size="150px">Unknown</text>
    <text x="8480" y="6700" transform="rotate(-90 8580,6700)" fill="rgb(134,106,54)" font-family="Arial, sans-serif" 
        font-size="100px"> </text>

    

    <!-- linke böxli -->
    <!-- DPE -->
    <rect x="50" y="5000" width="400" height="2000" 
        style="fill:rgb(182,144,73);fill-opacity:1.0;stroke:rgb(134,106,54);stroke-width:20;opacity:1.0" />
    <text x="100" y="6800" 
        transform="rotate(-90 200,6800)" fill="white" font-family="Arial, sans-serif" font-size="150px">Deployment</text>
    <text x="250" y="6800" 
        transform="rotate(-90 350,6800)" fill="white" font-family="Arial, sans-serif" font-size="150px">Environments</text>

    <!-- App CS -->
    <rect x="50" y="200" width="400" height="1050" 
        style="fill:rgb(127,162,177);fill-opacity:1.0;stroke:rgb(93,119,130);stroke-width:20;opacity:1.0" />
    <text x="100" y="1100" 
        transform="rotate(-90 200,1100)" fill="white" font-family="Arial, sans-serif" 
        font-size="150px">App Common</text>
    <text x="250" y="1100" 
        transform="rotate(-90 350,1100)" fill="white" font-family="Arial, sans-serif" 
        font-size="150px">Services</text>

    <!-- RTE -->
    <rect x="50" y="1300" width="400" height="2400" 
        style="fill:rgb(75,145,205);fill-opacity:1.0;stroke:rgb(55,107,151);stroke-width:20;opacity:1.0" />
    <text x="100" y="3550" 
        transform="rotate(-90 200,3550)" fill="white" font-family="Arial, sans-serif" 
        font-size="150px">Runtime</text>
    <text x="250" y="3550" 
        transform="rotate(-90 350,3550)" fill="white" font-family="Arial, sans-serif" 
        font-size="150px">Environments</text>

    <!-- Infra CS -->
    <rect x="50" y="3750" width="400" height="1050" 
        style="fill:rgb(0,69,99);fill-opacity:1.0;stroke:rgb(0,51,73);stroke-width:20;opacity:1.0" />
    <text x="100" y="4650" 
        transform="rotate(-90 200,4650)" fill="white" font-family="Arial, sans-serif" 
        font-size="150px">Infra Common</text>
    <text x="250" y="4650" 
        transform="rotate(-90 350,4650)" fill="white" font-family="Arial, sans-serif" 
        font-size="150px">Services</text>
    
    <!-- generated: App Common Service Business Events -->
    <rect x="700" y="250" width="8045" height="175"
        style="fill:rgb(127,162,177);fill-opacity:0.6;stroke:rgb(93,119,130);stroke-width:20;opacity:1.0" />
    <text x="720" y="385" fill="white" font-family="Arial, sans-serif" font-size="150px" >Business Events</text>

    
        <a xlink:href="http://app.cs" target="newWindow">
            <rect x="700" y="250" width="8045" height="175" stroke-width="0" fill-opacity="0"/>
        </a>
    

    <!-- generated: App Common Service Business Rules -->
    <rect x="700" y="475" width="8045" height="175"
        style="fill:rgb(127,162,177);fill-opacity:0.6;stroke:rgb(93,119,130);stroke-width:20;opacity:1.0" />
    <text x="720" y="610" fill="white" font-family="Arial, sans-serif" font-size="150px" >Business Rules</text>

    

    <!-- generated: App Common Service ECM: CA, CM, CD -->
    <rect x="700" y="700" width="8045" height="175"
        style="fill:rgb(127,162,177);fill-opacity:0.6;stroke:rgb(93,119,130);stroke-width:20;opacity:1.0" />
    <text x="720" y="835" fill="white" font-family="Arial, sans-serif" font-size="150px" >ECM: CA, CM, CD</text>

    

    <!-- generated: App Common Service Workload Balancing -->
    <rect x="700" y="925" width="8045" height="175"
        style="fill:rgb(127,162,177);fill-opacity:0.6;stroke:rgb(93,119,130);stroke-width:20;opacity:1.0" />
    <text x="720" y="1060" fill="white" font-family="Arial, sans-serif" font-size="150px" >Workload Balancing</text>

    

    <!-- generated: Infra Common Service Datastores, Databases, ... -->
    <rect x="700" y="4575" width="8045" height="175"
        style="fill:rgb(0,69,99);fill-opacity:0.6;stroke:rgb(0,51,73);stroke-width:20;opacity:1.0" />
    <text x="720" y="4710" fill="white" font-family="Arial, sans-serif" font-size="150px" >Datastores, Databases, ...</text>

    
        <a xlink:href="http://infra.cs" target="newWindow">
            <rect x="700" y="4575" width="8045" height="175" stroke-width="0" fill-opacity="0"/>
        </a>
    

    <!-- generated: Infra Common Service Security: IAM, Authentication, Autorization, ... -->
    <rect x="700" y="4350" width="8045" height="175"
        style="fill:rgb(0,69,99);fill-opacity:0.6;stroke:rgb(0,51,73);stroke-width:20;opacity:1.0" />
    <text x="720" y="4485" fill="white" font-family="Arial, sans-serif" font-size="150px" >Security: IAM, Authentication, Autorization, ...</text>

    

    <!-- generated: Infra Common Service Communication: AMG (eMail), SMS, Chat, ... -->
    <rect x="700" y="4125" width="8045" height="175"
        style="fill:rgb(0,69,99);fill-opacity:0.6;stroke:rgb(0,51,73);stroke-width:20;opacity:1.0" />
    <text x="720" y="4260" fill="white" font-family="Arial, sans-serif" font-size="150px" >Communication: AMG (eMail), SMS, Chat, ...</text>

    

    <!-- generated: Infra Common Service Integration -->
    <rect x="700" y="3900" width="8045" height="175"
        style="fill:rgb(0,69,99);fill-opacity:0.6;stroke:rgb(0,51,73);stroke-width:20;opacity:1.0" />
    <text x="720" y="4035" fill="white" font-family="Arial, sans-serif" font-size="150px" >Integration</text>

    

</svg>